<svg width="117" height="14" viewBox="0 0 117 14" fill="none" xmlns="http://www.w3.org/2000/svg">
<mask id="mask0_2_95" style="mask-type:luminance" maskUnits="userSpaceOnUse" x="0" y="0" width="117" height="14">
<path d="M0.602478 0.189941H116.602V13.7539H0.602478V0.189941Z" fill="white"/>
</mask>
<g mask="url(#mask0_2_95)">
<path d="M15.5995 13.4799H19.8365L22.1075 0.479942H17.8725L17.0345 5.13494H13.3615L14.1995 0.479942H9.96248L7.69148 13.4799H11.9285L12.7815 8.61494H16.4545L15.5995 13.4799ZM24.5075 0.463942L23.2195 7.69694C23.1124 8.23266 23.0585 8.77763 23.0585 9.32394C23.0585 13.1579 26.4085 13.7379 28.4225 13.7379C32.6425 13.7379 34.4625 12.3359 35.1235 8.54994L36.5415 0.447941H32.3045L31.0965 7.24594C30.7095 9.37194 30.4365 10.4839 28.8565 10.4839C27.8265 10.4839 27.3265 9.93594 27.3265 8.80794C27.3265 8.37294 27.3915 7.84194 27.5205 7.18094L28.7445 0.447941H24.5075V0.463942ZM58.9325 13.4799H63.1695L63.7655 10.1299H65.7625C69.4525 10.1299 71.4975 8.13194 71.4975 4.49094C71.4975 1.92994 69.7255 0.463942 66.6165 0.463942H61.2035L58.9325 13.4799ZM65.5375 6.92394H64.3125L64.8765 3.86294H66.0205C66.9545 3.86294 67.4545 4.32994 67.4545 5.18294C67.4545 6.26294 66.7295 6.92394 65.5375 6.92394ZM79.7285 0.189941C75.1215 0.189941 72.3675 3.16994 72.3675 8.17994C72.3675 11.6599 74.5575 13.7539 78.2305 13.7539C82.8375 13.7539 85.5925 10.7739 85.5925 5.76394C85.6085 2.26794 83.4175 0.189941 79.7285 0.189941ZM78.4885 10.3869C77.3935 10.3869 76.7485 9.59694 76.7485 8.27694C76.7485 7.77694 76.7975 7.34194 76.8935 6.84294C77.2155 5.13494 77.7635 3.57294 79.4875 3.57294C80.5825 3.57294 81.2275 4.36294 81.2275 5.68294C81.2275 6.18294 81.1785 6.61694 81.0825 7.11694C80.7595 8.80794 80.2125 10.3869 78.4885 10.3869ZM100.332 13.4799H104.569L106.244 3.95994H109.433L110.046 0.479942H99.2045L98.5925 3.95994H101.975L100.332 13.4799ZM93.3085 5.27994C91.9715 4.86194 91.4245 4.68394 91.4245 4.05594C91.4245 3.63694 91.6975 3.13794 92.5035 3.13794C93.0995 3.13794 93.5985 3.47594 93.7925 3.97594L97.5295 2.96094C97.0945 1.12394 95.5155 0.189941 92.7935 0.189941C87.6705 0.189941 87.2685 3.62094 87.2685 4.66794C87.2685 6.79494 88.3955 8.09894 90.8445 8.77594C91.4885 8.95294 92.2295 9.14594 92.2295 9.85594C92.2295 10.4189 91.8105 10.7739 91.0855 10.7739C90.4255 10.7739 89.7165 10.3869 89.4755 9.70994L85.7855 10.7099C86.1885 12.6419 88.0095 13.7379 90.8605 13.7379C93.0355 13.7379 96.6755 13.1579 96.6755 9.22794C96.6915 7.26194 95.5805 5.97294 93.3085 5.27994ZM5.32248 13.4799L7.60948 0.479942H0.602478V13.4799H5.32248ZM111.866 0.479942L109.595 13.4799H116.602V0.479942H111.866ZM41.5995 9.64594H45.1595L45.7395 6.37594H42.1795L42.5825 3.95994H47.5605L48.1725 0.463942H38.9575L36.6865 13.4799H40.9235L41.5995 9.64594ZM52.6985 9.64594H56.2745L56.8545 6.37594H53.2945L53.6975 3.95994H58.6745L59.2865 0.463942H50.0725L47.8025 13.4799H52.0385L52.6985 9.64594Z" fill="#8A8C97"/>
</g>
</svg>
