<svg width="214" height="25" viewBox="0 0 214 25" fill="none" xmlns="http://www.w3.org/2000/svg">
<g clip-path="url(#clip0_2_530)">
<g clip-path="url(#clip1_2_530)">
<g clip-path="url(#clip2_2_530)">
<path fill-rule="evenodd" clip-rule="evenodd" d="M29.6025 1.54004H3.60248C2.00248 1.54004 0.602478 2.84004 0.602478 4.54004V20.54C0.602478 22.24 1.90248 23.54 3.60248 23.54H29.6025C31.3025 23.54 32.6025 22.24 32.6025 20.54V4.54004C32.6025 2.84004 31.3025 1.54004 29.6025 1.54004Z" fill="#383C43"/>
<path fill-rule="evenodd" clip-rule="evenodd" d="M12.3025 5.94043C13.1692 5.94043 14.0274 6.11114 14.8282 6.44282C15.6289 6.77451 16.3565 7.26066 16.9694 7.87352C17.5822 8.48639 18.0684 9.21397 18.4001 10.0147C18.7317 10.8155 18.9025 11.6737 18.9025 12.5404C18.9025 13.4072 18.7317 14.2654 18.4001 15.0661C18.0684 15.8669 17.5822 16.5945 16.9694 17.2073C16.3565 17.8202 15.6289 18.3064 14.8282 18.638C14.0274 18.9697 13.1692 19.1404 12.3025 19.1404C11.4357 19.1404 10.5775 18.9697 9.77674 18.638C8.97599 18.3064 8.24842 17.8202 7.63555 17.2073C7.02268 16.5945 6.53653 15.8669 6.20485 15.0661C5.87317 14.2654 5.70245 13.4072 5.70245 12.5404C5.70245 11.6737 5.87317 10.8155 6.20485 10.0147C6.53653 9.21397 7.02268 8.48639 7.63555 7.87352C8.24842 7.26066 8.97599 6.77451 9.77674 6.44282C10.5775 6.11114 11.4357 5.94043 12.3025 5.94043Z" fill="#EB001B"/>
<path fill-rule="evenodd" clip-rule="evenodd" d="M21.1025 6.04004C24.7025 6.14004 27.6025 9.04004 27.5025 12.64C27.4025 16.24 24.5025 19.14 20.9025 19.04C17.3025 18.94 14.5025 16.14 14.5025 12.54C14.5025 8.94004 17.5025 6.04004 21.1025 6.04004Z" fill="#00A2E5"/>
<path fill-rule="evenodd" clip-rule="evenodd" d="M14.5025 12.5402C14.5025 10.6402 15.3025 8.94023 16.7025 7.74023C19.4025 10.0402 19.6025 14.1402 17.3025 16.7402L16.7025 17.3402C16.007 16.7498 15.4495 16.0139 15.0694 15.1846C14.6893 14.3552 14.4957 13.4525 14.5025 12.5402Z" fill="#7375CF"/>
<path fill-rule="evenodd" clip-rule="evenodd" d="M65.6025 1.54004H39.6025C38.0025 1.54004 36.6025 2.84004 36.6025 4.54004V20.54C36.6025 22.24 37.9025 23.54 39.6025 23.54H65.6025C67.3025 23.54 68.6025 22.24 68.6025 20.54V4.54004C68.6025 2.84004 67.3025 1.54004 65.6025 1.54004Z" fill="#F8F8F8"/>
<path d="M36.6025 4.54004C36.6025 3.74439 36.9186 2.98133 37.4812 2.41872C38.0438 1.85611 38.8068 1.54004 39.6025 1.54004H65.6025C66.3981 1.54004 67.1612 1.85611 67.7238 2.41872C68.2864 2.98133 68.6025 3.74439 68.6025 4.54004H36.6025Z" fill="#1A1F71"/>
<path d="M36.6025 20.54H68.6025C68.6025 21.3357 68.2864 22.0988 67.7238 22.6614C67.1612 23.224 66.3981 23.54 65.6025 23.54H39.6025C38.8068 23.54 38.0438 23.224 37.4812 22.6614C36.9186 22.0988 36.6025 21.3357 36.6025 20.54Z" fill="#F7B600"/>
<path fill-rule="evenodd" clip-rule="evenodd" d="M61.4025 6.64048H63.0025L64.6025 14.3405H62.6025C62.6025 14.3405 62.5025 13.4405 62.4025 13.1405H59.8025C59.7025 13.3405 59.4025 14.3405 59.4025 14.3405H57.3025L60.3025 7.24048C60.5025 6.84048 60.9025 6.54048 61.4025 6.64048ZM61.3025 9.44047C61.3025 9.44047 60.7025 11.2405 60.5025 11.6405H62.2025C62.1025 11.2405 61.7025 9.44047 61.7025 9.44047L61.6025 8.74048C61.5025 9.04048 61.3025 9.44047 61.3025 9.44047Z" fill="#1A1F71"/>
<path d="M56.0025 6.54004C56.6025 6.54004 57.2025 6.64004 57.8025 6.84004L57.5025 8.54004H57.4025C56.9025 8.34004 56.4025 8.24004 55.9025 8.24004C55.1025 8.24004 54.7025 8.64004 54.7025 8.94004C54.7025 9.31404 55.0525 9.51304 55.6725 9.86604L55.8025 9.94004C57.0025 10.44 57.5025 11.14 57.5025 12.04C57.5025 13.64 56.1025 14.64 54.0025 14.64C53.2025 14.64 52.4025 14.54 51.7025 14.24L52.0025 12.54L52.3025 12.64C52.9025 12.94 53.5025 13.04 54.2025 13.04C54.7025 13.14 55.3025 12.74 55.4025 12.24C55.5025 11.84 55.2025 11.64 54.4025 11.24C53.4025 10.94 52.7025 10.14 52.6025 9.14004C52.6025 7.54004 54.0025 6.54004 56.0025 6.54004ZM49.7025 6.74004L48.4025 14.44H50.4025L51.7025 6.74004H49.7025ZM42.9025 6.64004H39.6025V6.84004C40.4425 6.99204 41.2375 7.32004 41.9455 7.77804C41.8655 7.7303 41.7845 7.68429 41.7025 7.64004L43.5025 14.44H45.6025L48.8025 6.74004L46.7025 6.64004L44.7025 11.94L44.5025 10.84L43.8025 7.34004C43.747 7.14249 43.6296 6.96793 43.4677 6.84196C43.3057 6.71598 43.1076 6.64521 42.9025 6.64004Z" fill="#1A1F71"/>
<path fill-rule="evenodd" clip-rule="evenodd" d="M56.8755 18.54C57.1455 18.54 57.3575 18.47 57.4535 18.423L57.3905 18.149C57.2497 18.2136 57.0963 18.246 56.9415 18.244C56.5415 18.244 56.2425 17.957 56.2425 17.491C56.2425 17.075 56.4925 16.73 56.9545 16.73C57.1545 16.73 57.2905 16.78 57.3785 16.826L57.4615 16.546C57.3025 16.4721 57.1288 16.4355 56.9535 16.439C56.2965 16.439 55.8725 16.892 55.8725 17.512C55.8725 18.128 56.2685 18.54 56.8755 18.54ZM55.1075 17.292C55.1115 17.062 55.0115 16.701 54.5995 16.701C54.2255 16.701 54.0675 17.038 54.0375 17.291H55.1075V17.292ZM54.0335 17.554C54.0425 18.049 54.3535 18.253 54.7245 18.253C54.9865 18.253 55.1495 18.207 55.2825 18.149L55.3485 18.411C55.1354 18.5009 54.9057 18.5449 54.6745 18.54C54.0545 18.54 53.6845 18.128 53.6845 17.52C53.6845 16.913 54.0425 16.439 54.6285 16.439C55.2905 16.439 55.4615 17.013 55.4615 17.383C55.4627 17.44 55.4583 17.4969 55.4485 17.553H54.0345L54.0335 17.554ZM50.9685 17.179H52.0545V16.879H50.9685V15.994H52.1215V15.69H50.6025V18.494H52.1835V18.19H50.9685V17.179ZM53.1105 15.54H52.7445V18.494H53.1105V15.54ZM58.4805 15.998V16.48H59.0045V16.759H58.4805V17.845C58.4805 18.095 58.5505 18.236 58.7545 18.236C58.8545 18.236 58.9135 18.228 58.9675 18.211L58.9835 18.491C58.9135 18.515 58.8005 18.54 58.6595 18.54C58.5865 18.5434 58.5137 18.5315 58.4456 18.5049C58.3776 18.4784 58.3159 18.4379 58.2645 18.386C58.1645 18.274 58.1225 18.095 58.1225 17.858V16.758H57.8105V16.48H58.1225V16.106L58.4805 15.998ZM59.4995 16.48C59.5115 16.668 59.5155 16.871 59.5155 17.109V18.494H59.8825V17.421C59.8825 17.362 59.8865 17.3 59.8945 17.251C59.9445 16.975 60.1275 16.784 60.3845 16.784C60.4355 16.784 60.4725 16.784 60.5105 16.793V16.447L60.4985 16.445C60.4693 16.4411 60.4399 16.4391 60.4105 16.439C60.1645 16.439 59.9405 16.609 59.8485 16.879H59.8365L59.8195 16.48H59.4995ZM61.1675 17.491C61.1675 17.932 61.4175 18.265 61.7745 18.265C62.1245 18.265 62.3855 17.936 62.3855 17.483C62.3855 17.142 62.2155 16.713 61.7825 16.713C61.3545 16.713 61.1675 17.112 61.1675 17.491ZM62.7605 17.471C62.7605 18.215 62.2405 18.54 61.7575 18.54C61.2175 18.54 60.7925 18.14 60.7925 17.504C60.7925 16.834 61.2375 16.439 61.7915 16.439C62.3695 16.439 62.7615 16.859 62.7615 17.47L62.7605 17.471ZM63.3055 16.481C63.3175 16.647 63.3215 16.813 63.3215 17.025V18.495H63.6875V17.283C63.6863 17.2254 63.6948 17.1679 63.7125 17.113C63.7446 17.0069 63.8093 16.9135 63.8974 16.8462C63.9855 16.7789 64.0926 16.7411 64.2035 16.738C64.5495 16.738 64.6695 17.008 64.6695 17.333V18.494H65.0355V17.296C65.0355 16.606 64.6025 16.439 64.3245 16.439C64.1901 16.4356 64.0572 16.4685 63.94 16.5343C63.8227 16.6002 63.7255 16.6965 63.6585 16.813H63.6505L63.6295 16.48H63.3055V16.481Z" fill="#1A1F71"/>
<path fill-rule="evenodd" clip-rule="evenodd" d="M101.602 1.54004H75.6025C74.0025 1.54004 72.6025 2.84004 72.6025 4.54004V20.54C72.6025 22.24 73.9025 23.54 75.6025 23.54H101.602C103.302 23.54 104.602 22.24 104.602 20.54V4.54004C104.602 2.84004 103.302 1.54004 101.602 1.54004Z" fill="#383C43"/>
<path fill-rule="evenodd" clip-rule="evenodd" d="M84.3025 5.94043C85.1692 5.94043 86.0274 6.11114 86.8282 6.44282C87.6289 6.77451 88.3565 7.26066 88.9694 7.87352C89.5822 8.48639 90.0684 9.21397 90.4001 10.0147C90.7317 10.8155 90.9025 11.6737 90.9025 12.5404C90.9025 13.4072 90.7317 14.2654 90.4001 15.0661C90.0684 15.8669 89.5822 16.5945 88.9694 17.2073C88.3565 17.8202 87.6289 18.3064 86.8282 18.638C86.0274 18.9697 85.1692 19.1404 84.3025 19.1404C83.4357 19.1404 82.5775 18.9697 81.7767 18.638C80.976 18.3064 80.2484 17.8202 79.6356 17.2073C79.0227 16.5945 78.5365 15.8669 78.2048 15.0661C77.8732 14.2654 77.7025 13.4072 77.7025 12.5404C77.7025 11.6737 77.8732 10.8155 78.2048 10.0147C78.5365 9.21397 79.0227 8.48639 79.6356 7.87352C80.2484 7.26066 80.976 6.77451 81.7767 6.44282C82.5775 6.11114 83.4357 5.94043 84.3025 5.94043Z" fill="#F22F12"/>
<path fill-rule="evenodd" clip-rule="evenodd" d="M93.1025 6.04004C96.7025 6.14004 99.6025 9.04004 99.5025 12.64C99.4025 16.24 96.5025 19.14 92.9025 19.04C89.3025 18.94 86.5025 16.14 86.5025 12.54C86.5025 8.94004 89.5025 6.04004 93.1025 6.04004Z" fill="#F79F1A"/>
<path fill-rule="evenodd" clip-rule="evenodd" d="M86.5025 12.5402C86.5025 10.6402 87.3025 8.94023 88.7025 7.74023C91.4025 10.0402 91.6025 14.1402 89.3025 16.7402L88.7025 17.3402C88.007 16.7498 87.4495 16.0139 87.0694 15.1846C86.6893 14.3552 86.4957 13.4525 86.5025 12.5402Z" fill="#FF5F01"/>
<path fill-rule="evenodd" clip-rule="evenodd" d="M111.602 23.04C110.203 23.04 109.102 21.94 109.102 20.54V4.54004C109.102 3.14004 110.203 2.04004 111.602 2.04004H137.602C139.002 2.04004 140.102 3.14004 140.102 4.54004V20.54C140.102 21.94 139.002 23.04 137.602 23.04H111.602Z" fill="#F2F2F2"/>
<path fill-rule="evenodd" clip-rule="evenodd" d="M137.602 1.54004H111.602C110.002 1.54004 108.602 2.84004 108.602 4.54004V20.54C108.602 22.24 109.903 23.54 111.602 23.54H137.602C139.302 23.54 140.602 22.24 140.602 20.54V4.54004C140.602 2.84004 139.302 1.54004 137.602 1.54004ZM137.602 2.54004C138.703 2.54004 139.602 3.44004 139.602 4.54004V20.54C139.602 21.64 138.703 22.54 137.602 22.54H111.602C110.502 22.54 109.602 21.64 109.602 20.54V4.54004C109.602 3.44004 110.502 2.54004 111.602 2.54004H137.602Z" fill="#D8D8D8"/>
<path fill-rule="evenodd" clip-rule="evenodd" d="M133.402 8.64082H135.002L136.601 16.3398H134.601C134.601 16.3398 134.502 15.4408 134.402 15.1408H131.802C131.702 15.3398 131.402 16.3398 131.402 16.3398H129.302L132.302 9.24082C132.502 8.83982 132.902 8.53982 133.402 8.64082ZM133.302 11.4408C133.302 11.4408 132.702 13.2408 132.502 13.6408H134.202C134.101 13.2408 133.702 11.4408 133.702 11.4408L133.601 10.7408C133.502 11.0398 133.302 11.4408 133.302 11.4408Z" fill="url(#paint0_linear_2_530)"/>
<path d="M128.002 8.54004C128.601 8.54004 129.202 8.64104 129.802 8.84004L129.502 10.54H129.402C128.902 10.34 128.402 10.241 127.902 10.241C127.101 10.241 126.702 10.641 126.702 10.941C126.702 11.314 127.052 11.514 127.672 11.867L127.802 11.941C129.002 12.441 129.502 13.141 129.502 14.04C129.502 15.641 128.101 16.641 126.002 16.641C125.202 16.641 124.402 16.54 123.702 16.241L124.002 14.54L124.302 14.641C124.902 14.941 125.502 15.04 126.202 15.04C126.702 15.141 127.302 14.741 127.402 14.241C127.502 13.84 127.202 13.641 126.402 13.241C125.402 12.941 124.702 12.141 124.601 11.141C124.601 9.54004 126.002 8.54004 128.002 8.54004Z" fill="url(#paint1_linear_2_530)"/>
<path d="M121.702 8.74121L120.402 16.4412H122.402L123.702 8.74121H121.702Z" fill="url(#paint2_linear_2_530)"/>
<path d="M114.903 8.64062H111.602V8.83963C112.442 8.99263 113.238 9.31963 113.946 9.77763C113.865 9.73033 113.784 9.68465 113.702 9.64062L115.503 16.4406H117.602L120.802 8.74063L118.702 8.64062L116.702 13.9406L116.503 12.8396L115.801 9.33963C115.746 9.14243 115.629 8.9682 115.467 8.84243C115.305 8.71666 115.107 8.64595 114.903 8.64062Z" fill="url(#paint3_linear_2_530)"/>
<path fill-rule="evenodd" clip-rule="evenodd" d="M173.602 1.54004H147.602C146.001 1.54004 144.602 2.84004 144.602 4.54004V20.54C144.602 22.24 145.902 23.54 147.602 23.54H173.602C175.302 23.54 176.602 22.24 176.602 20.54V4.54004C176.602 2.84004 175.302 1.54004 173.602 1.54004Z" fill="#006FCF"/>
<path fill-rule="evenodd" clip-rule="evenodd" d="M150.602 12.74H152.302L151.501 10.74L150.602 12.74ZM164.802 10.74V12.04H166.702V13.04H164.802V14.34H166.902L168.402 12.54L167.102 10.84L164.802 10.74ZM170.902 15.54L169.302 13.64L167.602 15.54H163.402V9.64004H167.802L169.302 11.54L170.902 9.64004H172.501L170.102 12.54L172.402 15.54H170.902ZM162.501 15.54H160.902V11.14L159.202 15.54H157.902L156.001 11.14V15.54H153.302L152.802 14.04H150.102L149.602 15.54H148.102L150.501 9.64004H152.302L154.602 15.24V9.64004H156.802L158.501 13.54L160.202 9.64004H162.501V15.54ZM171.402 12.54L173.202 10.24L174.602 8.54004H170.402L170.102 8.94004L169.302 9.84004L168.602 8.94004L168.302 8.54004H159.602L159.302 9.14004L158.501 10.94L157.702 9.14004L157.501 8.54004H153.602V10.04L153.302 9.14004L153.001 8.54004H149.902L149.602 9.14004L147.202 15.04L146.602 16.54H150.302L150.501 15.84L150.802 15.04H152.102L152.402 15.84L152.602 16.54H157.001V16.04L157.202 16.54H159.802L159.902 16.44V16.54H168.102L168.402 16.24L169.302 15.24L170.202 16.24L170.501 16.64H174.602L173.302 14.94L171.402 12.54Z" fill="white"/>
<path fill-rule="evenodd" clip-rule="evenodd" d="M183.183 23.54C181.737 23.54 180.602 22.388 180.602 20.921V4.15904C180.602 2.69304 181.737 1.54004 183.183 1.54004H210.021C211.467 1.54004 212.602 2.69304 212.602 4.15904V20.921C212.602 22.388 211.467 23.54 210.021 23.54H183.183Z" fill="#F2F2F2"/>
<path fill-rule="evenodd" clip-rule="evenodd" d="M194.602 22.54L211.602 16.54V20.54C211.602 21.64 210.702 22.54 209.602 22.54H194.602Z" fill="#F16000"/>
<path fill-rule="evenodd" clip-rule="evenodd" d="M207.402 11.5399V10.5399H208.202C208.503 10.5399 208.702 10.6399 208.802 10.9399V11.0399C208.802 11.3399 208.602 11.5399 208.302 11.5399H207.402ZM206.602 13.3399H207.402V12.2399H208.003L208.702 13.3399H209.602L208.802 12.0399C209.302 11.8399 209.602 11.4399 209.503 10.9399C209.503 10.6399 209.402 10.3399 209.202 10.1399C208.902 9.83992 208.602 9.73992 208.202 9.73992H206.602V13.3399ZM203.302 13.3399H205.902V12.6399H204.003V11.9399H205.602V11.2399H204.003V10.4399H205.802V9.73992H203.202L203.302 13.3399ZM200.702 13.3399H201.402L202.802 9.73992H202.003L201.102 12.2399L200.202 9.73992H199.402L200.702 13.3399ZM193.802 13.4399C194.302 13.4399 194.902 13.2399 195.202 12.8399L194.702 12.3399C194.503 12.6399 194.102 12.7399 193.802 12.7399C193.202 12.7399 192.802 12.2399 192.802 11.6399C192.802 11.0399 193.202 10.5399 193.802 10.5399C194.102 10.5399 194.503 10.7399 194.702 10.9399L195.202 10.3399C194.902 9.93992 194.402 9.73992 193.802 9.73992C192.802 9.73992 192.003 10.5399 192.003 11.5399V11.6399C192.003 12.5399 192.702 13.3399 193.802 13.4399ZM190.302 13.4399C190.902 13.5399 191.503 13.1399 191.602 12.4399V12.2399C191.602 11.6399 191.102 11.1399 190.503 11.1399C189.902 11.0399 189.702 10.9399 189.702 10.7399C189.702 10.5399 189.902 10.4399 190.102 10.4399C190.402 10.4399 190.702 10.5399 191.003 10.8399L191.402 10.2399C191.102 9.83992 190.602 9.73992 190.202 9.73992C189.602 9.63992 189.003 10.0399 189.003 10.6399V10.7399C189.003 11.4399 189.402 11.6399 190.102 11.8399C190.702 12.0399 190.802 12.1399 190.802 12.3399C190.802 12.5399 190.602 12.7399 190.302 12.6399C189.902 12.6399 189.602 12.4399 189.302 12.2399L188.902 12.8399C189.202 13.2399 189.802 13.4399 190.302 13.4399ZM187.503 13.3399H188.303V9.73992H187.503V13.3399ZM184.402 12.6399V10.4399H185.003C185.602 10.4399 186.003 10.8399 186.003 11.4399V11.5399C186.003 12.1399 185.602 12.5399 185.102 12.6399H184.402ZM183.602 13.3399H184.902C185.902 13.3399 186.702 12.6399 186.702 11.6399V11.5399C186.702 10.5399 186.003 9.73992 185.003 9.73992H183.602V13.3399Z" fill="black"/>
<path fill-rule="evenodd" clip-rule="evenodd" d="M197.352 13.54C197.883 13.54 198.392 13.3293 198.767 12.9543C199.142 12.5792 199.352 12.0705 199.352 11.54C199.352 11.0096 199.142 10.5009 198.767 10.1258C198.392 9.75075 197.883 9.54004 197.352 9.54004C196.822 9.54004 196.313 9.75075 195.938 10.1258C195.563 10.5009 195.352 11.0096 195.352 11.54C195.352 12.0705 195.563 12.5792 195.938 12.9543C196.313 13.3293 196.822 13.54 197.352 13.54Z" fill="#F16000"/>
<path fill-rule="evenodd" clip-rule="evenodd" d="M209.602 1.54004H183.602C182.002 1.54004 180.602 2.84004 180.602 4.54004V20.54C180.602 22.24 181.903 23.54 183.602 23.54H209.602C211.302 23.54 212.602 22.24 212.602 20.54V4.54004C212.602 2.84004 211.302 1.54004 209.602 1.54004ZM209.602 2.54004C210.703 2.54004 211.602 3.44004 211.602 4.54004V20.54C211.602 21.64 210.703 22.54 209.602 22.54H183.602C182.502 22.54 181.602 21.64 181.602 20.54V4.54004C181.602 3.44004 182.502 2.54004 183.602 2.54004H209.602Z" fill="#D8D8D8"/>
</g>
</g>
</g>
<defs>
<linearGradient id="paint0_linear_2_530" x1="111.602" y1="13.5398" x2="136.602" y2="13.5398" gradientUnits="userSpaceOnUse">
<stop stop-color="#22245A"/>
<stop offset="1" stop-color="#2548A1"/>
</linearGradient>
<linearGradient id="paint1_linear_2_530" x1="111.602" y1="13.54" x2="136.602" y2="13.54" gradientUnits="userSpaceOnUse">
<stop stop-color="#22245A"/>
<stop offset="1" stop-color="#2548A1"/>
</linearGradient>
<linearGradient id="paint2_linear_2_530" x1="111.602" y1="13.5402" x2="136.602" y2="13.5402" gradientUnits="userSpaceOnUse">
<stop stop-color="#22245A"/>
<stop offset="1" stop-color="#2548A1"/>
</linearGradient>
<linearGradient id="paint3_linear_2_530" x1="111.603" y1="13.5396" x2="136.602" y2="13.5396" gradientUnits="userSpaceOnUse">
<stop stop-color="#22245A"/>
<stop offset="1" stop-color="#2548A1"/>
</linearGradient>
<clipPath id="clip0_2_530">
<rect width="213" height="24" fill="white" transform="translate(0.102478 0.540039)"/>
</clipPath>
<clipPath id="clip1_2_530">
<rect width="213" height="24" fill="white" transform="translate(0.102478 0.540039)"/>
</clipPath>
<clipPath id="clip2_2_530">
<rect width="213" height="24" fill="white" transform="translate(0.102478 0.540039)"/>
</clipPath>
</defs>
</svg>
