<svg width="25" height="25" viewBox="0 0 25 25" fill="none" xmlns="http://www.w3.org/2000/svg">
<path d="M18.4265 18.6128C18.3707 18.6686 18.3046 18.7128 18.2317 18.743C18.1589 18.7732 18.0808 18.7887 18.002 18.7887C17.9231 18.7887 17.845 18.7732 17.7722 18.743C17.6994 18.7128 17.6332 18.6686 17.5775 18.6128L12.6025 13.6378L7.62646 18.6138C7.57094 18.6703 7.50479 18.7152 7.43182 18.746C7.35885 18.7768 7.2805 18.7928 7.2013 18.7932C7.1221 18.7936 7.04361 18.7783 6.97035 18.7481C6.8971 18.718 6.83053 18.6737 6.7745 18.6177C6.71846 18.5618 6.67406 18.4953 6.64385 18.422C6.61365 18.3488 6.59824 18.2703 6.59851 18.1911C6.59879 18.1119 6.61474 18.0336 6.64546 17.9606C6.67617 17.8876 6.72103 17.8214 6.77746 17.7658L11.7555 12.7898L6.77746 7.81377C6.72164 7.75803 6.67736 7.69183 6.64713 7.61897C6.6169 7.54611 6.60131 7.46801 6.60127 7.38913C6.60122 7.31024 6.61671 7.23212 6.64686 7.15923C6.677 7.08633 6.72121 7.02008 6.77695 6.96427C6.8327 6.90846 6.89889 6.86418 6.97176 6.83395C7.04462 6.80372 7.12272 6.78813 7.2016 6.78809C7.28048 6.78804 7.3586 6.80353 7.4315 6.83368C7.5044 6.86382 7.57064 6.90803 7.62646 6.96377L12.6025 11.9428L17.5785 6.96677C17.691 6.85419 17.8437 6.79094 18.003 6.79094C18.1622 6.79094 18.3149 6.85419 18.4275 6.96677C18.54 7.07936 18.6033 7.23205 18.6033 7.39127C18.6033 7.55049 18.54 7.70319 18.4275 7.81577L13.4505 12.7898L18.4265 17.7658C18.4827 17.8211 18.5274 17.8871 18.5578 17.9599C18.5883 18.0327 18.604 18.1109 18.604 18.1898C18.604 18.2687 18.5883 18.3468 18.5578 18.4196C18.5274 18.4924 18.4827 18.5574 18.4265 18.6128Z" fill="#E02F1F"/>
</svg>
