<svg width="116" height="25" viewBox="0 0 116 25" fill="none" xmlns="http://www.w3.org/2000/svg">
<path d="M85.8548 18.6128C85.5864 18.6686 85.2676 18.7128 84.9168 18.743C84.566 18.7732 84.1899 18.7887 83.8101 18.7887C83.4303 18.7887 83.0542 18.7732 82.7034 18.743C82.3526 18.7128 82.0338 18.6686 81.7654 18.6128L57.8025 13.6378L33.8348 18.6138C33.5674 18.6703 33.2488 18.7152 32.8973 18.746C32.5458 18.7768 32.1684 18.7928 31.787 18.7932C31.4055 18.7936 31.0274 18.7783 30.6746 18.7481C30.3217 18.718 30.0011 18.6737 29.7312 18.6177C29.4613 18.5618 29.2474 18.4953 29.1019 18.422C28.9564 18.3488 28.8822 18.2703 28.8835 18.1911C28.8849 18.1119 28.9617 18.0336 29.1096 17.9606C29.2576 17.8876 29.4736 17.8214 29.7454 17.7658L53.7228 12.7898L29.7454 7.81377C29.4766 7.75803 29.2633 7.69183 29.1177 7.61897C28.9721 7.54611 28.897 7.46801 28.8968 7.38913C28.8966 7.31024 28.9712 7.23212 29.1164 7.15923C29.2616 7.08633 29.4745 7.02008 29.743 6.96427C30.0115 6.90846 30.3304 6.86418 30.6813 6.83395C31.0323 6.80372 31.4084 6.78813 31.7884 6.78809C32.1684 6.78804 32.5446 6.80353 32.8958 6.83368C33.2469 6.86382 33.566 6.90803 33.8348 6.96377L57.8025 11.9428L81.7702 6.96677C82.3125 6.85419 83.048 6.79094 83.8149 6.79094C84.5818 6.79094 85.3173 6.85419 85.8596 6.96677C86.4019 7.07936 86.7065 7.23205 86.7065 7.39127C86.7065 7.55049 86.4019 7.70319 85.8596 7.81577L61.887 12.7898L85.8548 17.7658C86.1257 17.8211 86.3408 17.8871 86.4876 17.9599C86.6344 18.0327 86.7101 18.1109 86.7101 18.1898C86.7101 18.2687 86.6344 18.3468 86.4876 18.4196C86.3408 18.4924 86.1257 18.5574 85.8548 18.6128Z" fill="#E02F1F"/>
</svg>
