<svg width="32" height="25" viewBox="0 0 32 25" fill="none" xmlns="http://www.w3.org/2000/svg">
<path d="M23.6508 18.6128C23.5791 18.6686 23.4939 18.7128 23.4001 18.743C23.3063 18.7732 23.2058 18.7887 23.1043 18.7887C23.0028 18.7887 22.9023 18.7732 22.8085 18.743C22.7147 18.7128 22.6295 18.6686 22.5578 18.6128L16.1524 13.6378L9.74584 18.6138C9.67437 18.6703 9.5892 18.7152 9.49525 18.746C9.4013 18.7768 9.30043 18.7928 9.19846 18.7932C9.09648 18.7936 8.99543 18.7783 8.90111 18.7481C8.8068 18.718 8.72109 18.6737 8.64895 18.6177C8.5768 18.5618 8.51963 18.4953 8.48074 18.422C8.44185 18.3488 8.42201 18.2703 8.42237 18.1911C8.42272 18.1119 8.44326 18.0336 8.4828 17.9606C8.52235 17.8876 8.58011 17.8214 8.65275 17.7658L15.0619 12.7898L8.65275 7.81377C8.5809 7.75803 8.52388 7.69183 8.48496 7.61897C8.44604 7.54611 8.42597 7.46801 8.42591 7.38913C8.42585 7.31024 8.4458 7.23212 8.48461 7.15923C8.52342 7.08633 8.58034 7.02008 8.65211 6.96427C8.72388 6.90846 8.80911 6.86418 8.90292 6.83395C8.99672 6.80372 9.09728 6.78813 9.19884 6.78809C9.3004 6.78804 9.40098 6.80353 9.49484 6.83368C9.58869 6.86382 9.67398 6.90803 9.74584 6.96377L16.1524 11.9428L22.559 6.96677C22.704 6.85419 22.9006 6.79094 23.1056 6.79094C23.3106 6.79094 23.5072 6.85419 23.6521 6.96677C23.7971 7.07936 23.8785 7.23205 23.8785 7.39127C23.8785 7.55049 23.7971 7.70319 23.6521 7.81577L17.2442 12.7898L23.6508 17.7658C23.7232 17.8211 23.7807 17.8871 23.82 17.9599C23.8592 18.0327 23.8795 18.1109 23.8795 18.1898C23.8795 18.2687 23.8592 18.3468 23.82 18.4196C23.7807 18.4924 23.7232 18.5574 23.6508 18.6128Z" fill="#E02F1F"/>
</svg>
