<svg width="98" height="25" viewBox="0 0 98 25" fill="none" xmlns="http://www.w3.org/2000/svg">
<path d="M72.5382 18.6128C72.312 18.6686 72.0435 18.7128 71.7479 18.743C71.4523 18.7732 71.1354 18.7887 70.8154 18.7887C70.4954 18.7887 70.1786 18.7732 69.883 18.743C69.5873 18.7128 69.3188 18.6686 69.0927 18.6128L48.9024 13.6378L28.7082 18.6138C28.4829 18.6703 28.2144 18.7152 27.9183 18.746C27.6221 18.7768 27.3042 18.7928 26.9828 18.7932C26.6613 18.7936 26.3428 18.7783 26.0455 18.7481C25.7482 18.718 25.4781 18.6737 25.2506 18.6177C25.0232 18.5618 24.843 18.4953 24.7205 18.422C24.5979 18.3488 24.5353 18.2703 24.5365 18.1911C24.5376 18.1119 24.6023 18.0336 24.727 17.9606C24.8516 17.8876 25.0337 17.8214 25.2627 17.7658L45.465 12.7898L25.2627 7.81377C25.0362 7.75803 24.8564 7.69183 24.7337 7.61897C24.6111 7.54611 24.5478 7.46801 24.5476 7.38913C24.5474 7.31024 24.6103 7.23212 24.7326 7.15923C24.855 7.08633 25.0344 7.02008 25.2606 6.96427C25.4869 6.90846 25.7555 6.86418 26.0512 6.83395C26.3469 6.80372 26.6638 6.78813 26.984 6.78809C27.3041 6.78804 27.6212 6.80353 27.917 6.83368C28.2128 6.86382 28.4817 6.90803 28.7082 6.96377L48.9024 11.9428L69.0967 6.96677C69.5536 6.85419 70.1733 6.79094 70.8195 6.79094C71.4656 6.79094 72.0853 6.85419 72.5422 6.96677C72.9991 7.07936 73.2558 7.23205 73.2558 7.39127C73.2558 7.55049 72.9991 7.70319 72.5422 7.81577L52.3439 12.7898L72.5382 17.7658C72.7664 17.8211 72.9477 17.8871 73.0714 17.9599C73.1951 18.0327 73.2588 18.1109 73.2588 18.1898C73.2588 18.2687 73.1951 18.3468 73.0714 18.4196C72.9477 18.4924 72.7664 18.5574 72.5382 18.6128Z" fill="#E02F1F"/>
</svg>
