<svg width="23" height="23" viewBox="0 0 23 23" fill="none" xmlns="http://www.w3.org/2000/svg">
<g clip-path="url(#clip0_1038_1500)">
<path d="M14.7474 11.7306C14.7474 12.6228 14.393 13.4784 13.7621 14.1093C13.1313 14.7402 12.2756 15.0946 11.3835 15.0946C10.4913 15.0946 9.63567 14.7402 9.00481 14.1093C8.37395 13.4784 8.01954 12.6228 8.01954 11.7306C8.01954 11.5389 8.03972 11.3516 8.07448 11.17H6.89823V15.6519C6.89823 15.9636 7.15052 16.2159 7.46225 16.2159H15.3058C15.4552 16.2156 15.5984 16.156 15.7039 16.0503C15.8094 15.9445 15.8687 15.8012 15.8687 15.6519V11.17H14.6925C14.7272 11.3516 14.7474 11.5389 14.7474 11.7306ZM11.3835 13.9733C11.678 13.9732 11.9697 13.9151 12.2419 13.8023C12.514 13.6895 12.7612 13.5242 12.9695 13.3158C13.1777 13.1075 13.3429 12.8602 13.4556 12.588C13.5682 12.3158 13.6262 12.0241 13.6261 11.7295C13.626 11.4349 13.5679 11.1433 13.4551 10.8711C13.3423 10.599 13.177 10.3518 12.9687 10.1435C12.7603 9.93526 12.513 9.77009 12.2408 9.65743C11.9686 9.54477 11.6769 9.48682 11.3823 9.48689C10.7874 9.48704 10.2169 9.72352 9.79634 10.1443C9.37577 10.5651 9.13958 11.1357 9.13973 11.7306C9.13988 12.3256 9.37635 12.8961 9.79714 13.3166C10.2179 13.7372 10.7885 13.9734 11.3835 13.9733ZM14.0746 9.37589H15.4191C15.5084 9.37589 15.5941 9.34048 15.6573 9.27743C15.7206 9.21437 15.7563 9.12881 15.7566 9.03949V7.69504C15.7566 7.60553 15.721 7.51968 15.6577 7.45638C15.5944 7.39309 15.5086 7.35753 15.4191 7.35753H14.0746C13.9851 7.35753 13.8992 7.39309 13.836 7.45638C13.7727 7.51968 13.7371 7.60553 13.7371 7.69504V9.03949C13.7382 9.22451 13.8896 9.37589 14.0746 9.37589ZM11.3835 0.966064C8.52853 0.966064 5.79051 2.10019 3.77177 4.11893C1.75302 6.13768 0.618896 8.87569 0.618896 11.7306C0.618896 14.5856 1.75302 17.3236 3.77177 19.3423C5.79051 21.3611 8.52853 22.4952 11.3835 22.4952C12.7971 22.4952 14.1969 22.2168 15.5029 21.6758C16.8089 21.1348 17.9956 20.3419 18.9952 19.3423C19.9948 18.3428 20.7877 17.1561 21.3286 15.8501C21.8696 14.544 22.148 13.1443 22.148 11.7306C22.148 10.317 21.8696 8.91723 21.3286 7.61121C20.7877 6.30519 19.9948 5.11852 18.9952 4.11893C17.9956 3.11935 16.8089 2.32644 15.5029 1.78547C14.1969 1.2445 12.7971 0.966064 11.3835 0.966064ZM16.99 16.0914C16.99 16.7765 16.4294 17.3372 15.7442 17.3372H7.0227C6.33757 17.3372 5.77692 16.7765 5.77692 16.0914V7.36986C5.77692 6.68474 6.33757 6.12409 7.0227 6.12409H15.7442C16.4294 6.12409 16.99 6.68474 16.99 7.36986V16.0914Z" fill="white"/>
</g>
<defs>
<clipPath id="clip0_1038_1500">
<rect width="22.4262" height="22.4262" fill="white" transform="translate(0.170349 0.517334)"/>
</clipPath>
</defs>
</svg>
