<svg width="23" height="23" viewBox="0 0 23 23" fill="none" xmlns="http://www.w3.org/2000/svg">
<g clip-path="url(#clip0_1038_1498)">
<path d="M11.7605 0.966064C5.8153 0.966064 0.995911 5.78545 0.995911 11.7306C0.995911 17.6758 5.8153 22.4952 11.7605 22.4952C17.7057 22.4952 22.5251 17.6758 22.5251 11.7306C22.5251 5.78545 17.7057 0.966064 11.7605 0.966064ZM16.1392 9.78404C16.1437 9.87599 16.1448 9.96794 16.1448 10.0576C16.1448 12.8609 14.0132 16.0914 10.1133 16.0914C8.9609 16.0933 7.8325 15.7624 6.86372 15.1383C7.02856 15.1585 7.19787 15.1663 7.36943 15.1663C8.36292 15.1663 9.27678 14.8288 10.0023 14.2592C9.56016 14.2505 9.13176 14.1041 8.7768 13.8404C8.42184 13.5767 8.15799 13.2088 8.02204 12.788C8.33954 12.8484 8.66662 12.8357 8.97851 12.751C8.49865 12.654 8.06711 12.394 7.75708 12.0151C7.44705 11.6362 7.27761 11.1617 7.27749 10.6721V10.6463C7.56342 10.8044 7.89084 10.9009 8.23845 10.9121C7.78858 10.6126 7.47011 10.1526 7.34818 9.62609C7.22625 9.09959 7.31006 8.5464 7.58248 8.07965C8.11506 8.7345 8.77921 9.2702 9.53196 9.65208C10.2847 10.034 11.1093 10.2535 11.9522 10.2965C11.8451 9.84157 11.8912 9.36401 12.0834 8.93802C12.2757 8.51203 12.6033 8.1615 13.0153 7.94091C13.4273 7.72031 13.9007 7.64203 14.3618 7.71822C14.8229 7.79441 15.2459 8.02081 15.5651 8.36222C16.0396 8.26834 16.4946 8.09429 16.9107 7.84754C16.7525 8.33882 16.4214 8.756 15.9789 9.02155C16.3992 8.97093 16.8096 8.85793 17.1966 8.68628C16.9123 9.11226 16.5542 9.48402 16.1392 9.78404Z" fill="white"/>
</g>
<defs>
<clipPath id="clip0_1038_1498">
<rect width="22.4262" height="22.4262" fill="white" transform="translate(0.547241 0.517334)"/>
</clipPath>
</defs>
</svg>
