<svg width="24" height="23" viewBox="0 0 24 23" fill="none" xmlns="http://www.w3.org/2000/svg">
<g clip-path="url(#clip0_1038_1496)">
<path d="M12.0065 0.966064C6.06133 0.966064 1.24194 5.78545 1.24194 11.7306C1.24194 17.6758 6.06133 22.4952 12.0065 22.4952C17.9517 22.4952 22.7711 17.6758 22.7711 11.7306C22.7711 5.78545 17.9517 0.966064 12.0065 0.966064ZM14.5564 8.40483H12.9383C12.7466 8.40483 12.5335 8.65713 12.5335 8.9924V10.1608H14.5575L14.2514 11.8271H12.5335V16.8292H10.6239V11.8271H8.89152V10.1608H10.6239V9.18078C10.6239 7.77465 11.5995 6.63204 12.9383 6.63204H14.5564V8.40483Z" fill="white"/>
</g>
<defs>
<clipPath id="clip0_1038_1496">
<rect width="22.4262" height="22.4262" fill="white" transform="translate(0.793335 0.517334)"/>
</clipPath>
</defs>
</svg>
