<svg width="41" height="41" viewBox="0 0 41 41" fill="none" xmlns="http://www.w3.org/2000/svg">
<path d="M25.6255 29.26C25.0745 29.26 24.6255 28.795 24.6255 28.224C24.6255 27.654 25.0745 27.19 25.6255 27.19C26.1765 27.19 26.6255 27.654 26.6255 28.224C26.6255 28.795 26.1765 29.26 25.6255 29.26ZM14.5795 29.26C14.0285 29.26 13.5795 28.795 13.5795 28.224C13.5795 27.654 14.0285 27.19 14.5795 27.19C15.1305 27.19 15.5795 27.654 15.5795 28.224C15.5795 28.795 15.1305 29.26 14.5795 29.26ZM25.9835 23.027L27.9815 19.445C28.0366 19.3463 28.0515 19.2301 28.0232 19.1206C27.9949 19.0111 27.9255 18.9167 27.8295 18.857C27.7821 18.8289 27.7295 18.8106 27.6749 18.8034C27.6203 18.7961 27.5648 18.8 27.5117 18.8147C27.4587 18.8295 27.4091 18.8549 27.3661 18.8893C27.3231 18.9237 27.2875 18.9665 27.2615 19.015L25.2395 22.642C23.6327 21.8865 21.878 21.4978 20.1025 21.504C18.2495 21.504 16.5125 21.911 14.9655 22.642L12.9435 19.015C12.9175 18.9665 12.8819 18.9237 12.8388 18.8893C12.7958 18.8549 12.7463 18.8295 12.6932 18.8147C12.6401 18.8 12.5846 18.7961 12.53 18.8034C12.4754 18.8106 12.4228 18.8289 12.3755 18.857C12.2792 18.9166 12.2097 19.011 12.1814 19.1205C12.1531 19.2301 12.1681 19.3463 12.2235 19.445L14.2215 23.027C10.7915 24.958 8.44548 28.553 8.10248 32.8H32.1025C31.7595 28.553 29.4125 24.958 25.9835 23.027Z" fill="#2A2B32"/>
</svg>
