<svg width="41" height="41" viewBox="0 0 41 41" fill="none" xmlns="http://www.w3.org/2000/svg">
<path d="M28.7545 26.9198C28.2345 28.0688 27.9875 28.5818 27.3185 29.5968C26.3875 31.0148 25.0745 32.7818 23.4475 32.7968C22.0015 32.8098 21.6295 31.8568 19.6675 31.8668C17.7055 31.8768 17.2945 32.8128 15.8475 32.7998C14.2205 32.7848 12.9775 31.1898 12.0445 29.7708C9.44047 25.8048 9.16747 21.1518 10.7745 18.6788C11.9145 16.9188 13.7165 15.8918 15.4115 15.8918C17.1365 15.8918 18.2195 16.8368 19.6465 16.8368C21.0295 16.8368 21.8725 15.8898 23.8665 15.8898C25.3745 15.8898 26.9725 16.7108 28.1095 18.1278C24.3815 20.1728 24.9875 25.4958 28.7545 26.9198ZM23.1715 12.8478C22.2925 13.9728 20.7845 14.8448 19.3255 14.7998C19.0595 13.3498 19.7435 11.8568 20.5715 10.8498C21.4855 9.7418 23.0485 8.8908 24.3845 8.7998C24.6115 10.3148 23.9905 11.7978 23.1715 12.8478Z" fill="#2A2B32"/>
</svg>
