<svg width="41" height="41" viewBox="0 0 41 41" fill="none" xmlns="http://www.w3.org/2000/svg">
<path d="M8.61247 21.004C8.68847 20.407 8.76347 19.957 8.99047 19.438C9.59447 18.028 10.7255 17.136 12.1595 16.617C14.5745 15.726 17.0645 15.8 19.4035 16.839C19.7805 16.988 20.1355 17.256 20.5135 17.479C20.6085 17.534 20.5355 17.479 20.8375 17.656C20.9325 17.712 21.0425 17.74 20.9665 17.805C20.8965 17.865 20.6105 17.879 20.5355 17.879C19.5545 17.953 18.7245 18.473 18.0455 19.141C16.4605 20.477 15.5555 22.259 15.2535 24.189C14.7255 27.678 16.0075 30.425 18.8755 32.577C18.9505 32.652 19.0255 32.652 19.1015 32.8C16.9885 32.503 15.1775 31.76 13.5935 30.573C11.3295 28.866 9.74447 26.639 9.06547 23.892C8.91547 23.298 8.67547 22.78 8.61347 22.036C8.57947 21.634 8.53647 21.6 8.61247 21.004Z" fill="#2A2B32"/>
<path d="M9.25148 16.1616C9.62548 15.4976 9.92448 14.8326 10.3725 14.1686C12.3925 11.2156 15.0845 9.29559 18.6735 8.92659C22.8615 8.40959 26.6755 9.44359 29.7415 12.4706C31.1615 13.8736 32.2085 15.5706 32.5075 17.6386C32.8075 19.7056 32.4335 21.6246 30.8625 23.1756C29.8155 24.2826 28.4695 24.7256 26.9745 24.7996C25.9275 24.7996 24.8805 24.7256 23.8335 24.4296C23.5082 24.3431 23.2033 24.1929 22.9365 23.9876C22.4865 23.6926 22.4125 23.3226 22.7115 22.8066C22.8615 22.5846 23.0115 22.4366 23.0855 22.2896C23.6095 21.3296 23.6095 20.3696 23.3095 19.3366C22.7865 17.7866 21.7395 16.6786 20.3195 15.8666C18.5225 14.7596 16.5035 14.3896 14.4095 14.5376C12.6155 14.6856 10.8955 15.2016 9.39948 16.2356C9.39948 16.1616 9.39948 16.1616 9.24948 16.1616C9.32448 16.1616 9.32448 16.1616 9.24948 16.1616H9.25148Z" fill="#2A2B32"/>
<path d="M17.6095 21.4668C18.4025 24.9458 20.7095 26.8018 23.8085 27.5748C25.8985 28.0388 27.9885 27.7288 29.9345 26.8018C30.0795 26.7238 30.2235 26.7238 30.2945 26.8018C30.3675 26.8788 30.4395 27.1108 30.3675 27.2648C30.3675 27.4198 30.2235 27.5748 30.1515 27.7288C28.6375 29.9718 26.6915 31.5948 24.1685 32.3688C21.5025 33.2188 19.2685 32.2138 17.7545 29.8168C16.0965 27.1878 15.8805 24.4818 17.4655 21.6988C17.5375 21.6208 17.5375 21.5438 17.6095 21.4668Z" fill="#2A2B32"/>
</svg>
