<svg width="41" height="41" viewBox="0 0 41 41" fill="none" xmlns="http://www.w3.org/2000/svg">
<path d="M20.1945 32.0638C17.6675 32.0638 15.4145 31.3918 13.4375 30.0488C11.4595 28.7048 9.98848 26.9258 9.02448 24.7108C8.50648 23.5408 8.20748 22.1978 8.12748 20.6798C8.04748 19.1618 8.16248 17.6778 8.47548 16.2268C8.788 14.7749 9.28786 13.3699 9.96248 12.0468C10.6405 10.7138 11.4395 9.6298 12.3595 8.7998L12.2125 12.5638C12.3105 12.4388 12.6135 12.3688 13.1225 12.3558C13.6325 12.3428 13.9445 12.4118 14.0605 12.5638C14.4355 11.8398 15.1515 11.2238 16.2105 10.7148C17.2685 10.2058 18.3155 9.9428 19.3505 9.9248C18.8685 10.3268 18.3355 10.9898 17.7505 11.9138C17.1655 12.8378 16.9045 13.5678 16.9665 14.1038C17.1905 14.1748 17.4695 14.2348 17.8035 14.2838C18.1385 14.3338 18.4195 14.3668 18.6475 14.3848C18.8755 14.4028 19.1785 14.4208 19.5575 14.4388C19.9375 14.4558 20.1635 14.4688 20.2345 14.4788C20.3685 14.5228 20.4115 14.7268 20.3625 15.0888C20.3125 15.4488 20.1765 15.7868 19.9535 16.0988C19.8863 16.187 19.8124 16.2699 19.7325 16.3468C19.6295 16.4498 19.3775 16.6078 18.9755 16.8228C18.5515 17.0445 18.0952 17.198 17.6235 17.2778L17.8235 19.8088L15.9625 18.9118C15.8025 19.2958 15.7685 19.6598 15.8625 20.0038C15.9555 20.3468 16.1165 20.6438 16.3435 20.8938C16.5715 21.1438 16.8635 21.3298 17.2215 21.4498C17.5785 21.5698 17.9405 21.5998 18.3065 21.5368C18.7615 21.4568 19.1995 21.3028 19.6185 21.0748C20.0385 20.8468 20.4115 20.6458 20.7375 20.4718C21.0625 20.2978 21.3915 20.2198 21.7215 20.2378C22.2665 20.2738 22.6655 20.4208 22.9205 20.6798C23.1745 20.9388 23.2615 21.2298 23.1805 21.5498L23.1475 21.6238C23.0645 21.7781 22.942 21.9075 22.7925 21.9988C22.6607 22.0682 22.5185 22.1155 22.3715 22.1388C22.1658 22.1753 21.9556 22.1801 21.7485 22.1528C21.2125 23.0008 20.5675 23.6058 19.8125 23.9678C19.0585 24.3298 18.1225 24.4608 17.0065 24.3628C17.6381 24.8927 18.3829 25.2707 19.1835 25.4678C19.9735 25.6598 20.7255 25.6868 21.4405 25.5478C22.1579 25.4084 22.8537 25.1744 23.5095 24.8518C24.1375 24.5513 24.7156 24.156 25.2235 23.6798C25.7015 23.2248 26.0605 22.7598 26.3015 22.2868C26.6838 21.4831 26.8634 20.598 26.8245 19.7088C26.7975 18.8452 26.6278 17.992 26.3225 17.1838C26.0225 16.4068 25.6725 15.8488 25.2705 15.5098C26.0475 15.8498 26.6595 16.2038 27.1055 16.5748C27.5525 16.9448 27.8955 17.4478 28.1365 18.0818C28.2705 16.5638 28.0145 15.0318 27.3665 13.4878C26.7195 11.9428 25.7845 10.6748 24.5605 9.6838C26.9265 10.3708 28.7665 11.6188 30.0785 13.4268C31.3925 15.2358 32.0655 17.5458 32.1025 20.3578C32.116 21.519 31.9324 22.674 31.5595 23.7738C31.1798 24.9168 30.6216 25.9924 29.9055 26.9608C29.1816 27.9441 28.3305 28.8272 27.3745 29.5868C26.3782 30.3719 25.2578 30.985 24.0595 31.4008C22.8191 31.8419 21.512 32.0662 20.1955 32.0638H20.1945Z" fill="#2A2B32"/>
</svg>
