<svg width="41" height="41" viewBox="0 0 41 41" fill="none" xmlns="http://www.w3.org/2000/svg">
<path fill-rule="evenodd" clip-rule="evenodd" d="M20.1025 32.7998C13.4755 32.7998 8.10248 27.4268 8.10248 20.7998C8.10248 14.1728 13.4755 8.7998 20.1025 8.7998C26.7295 8.7998 32.1025 14.1728 32.1025 20.7998C32.1025 27.4268 26.7295 32.7998 20.1025 32.7998ZM13.6175 24.2898C13.6175 26.3688 15.2195 27.8808 17.2175 27.8808C19.2065 27.8808 20.8535 26.3418 20.8535 24.2628C20.8535 22.2018 19.2425 20.6538 17.2445 20.6538C16.7667 20.6511 16.2931 20.7434 15.8513 20.9253C15.4094 21.1072 15.0081 21.3751 14.6707 21.7134C14.3332 22.0517 14.0663 22.4536 13.8855 22.8959C13.7047 23.3382 13.6136 23.812 13.6175 24.2898ZM14.7785 24.2628C14.7785 22.8318 15.8495 21.6798 17.2355 21.6798C18.6125 21.6798 19.6925 22.8318 19.6925 24.2628C19.6925 25.6938 18.6125 26.8548 17.2355 26.8548C15.8495 26.8548 14.7785 25.6938 14.7785 24.2628ZM23.7105 27.8808C25.2685 27.8808 26.1505 26.8458 26.1505 25.8198C26.1505 24.7758 25.4845 24.0288 24.2245 23.7768L23.3325 23.6058C22.7665 23.4888 22.4425 23.0658 22.4425 22.6698C22.4425 22.1298 22.9725 21.6438 23.6575 21.6438C24.4045 21.6438 24.8815 22.2018 25.0075 22.7058L26.0325 22.3818C25.8895 21.6168 25.2325 20.6538 23.6395 20.6538C22.3695 20.6538 21.3075 21.6078 21.3075 22.7688C21.3075 23.6868 21.9375 24.4518 23.0985 24.6858L23.9625 24.8658C24.5575 24.9918 25.0065 25.3158 25.0065 25.8918C25.0065 26.4858 24.4305 26.8818 23.7295 26.8818C22.8825 26.8818 22.3245 26.3508 22.1715 25.5318L21.1025 25.8198C21.2005 26.8188 22.0645 27.8808 23.7125 27.8808H23.7105ZM15.5665 16.6998V18.7998H16.3925V16.7138C16.3925 16.1468 16.7005 15.7688 17.2185 15.7688C17.7925 15.7688 18.0165 16.1608 18.0165 16.6928V18.7998H18.8495V16.4898C18.8495 15.6428 18.4365 14.9778 17.4915 14.9778C16.9175 14.9778 16.5535 15.1878 16.1895 15.5938C15.9795 15.2158 15.6085 14.9778 15.0345 14.9778C14.7405 14.9778 14.2785 15.0898 13.9215 15.5658V15.0618H13.1095V18.7998H13.9425V16.7208C13.9425 16.1538 14.2505 15.7688 14.7615 15.7688C15.3355 15.7688 15.5665 16.1748 15.5665 16.6998ZM22.8745 18.7998V16.4198C22.8745 16.1678 22.8395 15.9508 22.7485 15.7478C22.5035 15.2088 21.9785 14.9848 21.3485 14.9848C21.0755 14.9848 20.8095 15.0338 20.5925 15.1318C20.0745 15.3558 19.7875 15.8318 19.7525 16.1468L20.5085 16.3148C20.5715 15.9578 20.8725 15.6988 21.3275 15.6988C21.8175 15.6988 22.0625 15.9718 22.0625 16.2658C22.0625 16.4478 21.9645 16.5808 21.7125 16.5808H21.2505C20.5995 16.5808 19.6965 16.8538 19.6965 17.7218V17.7638C19.6965 18.4078 20.2285 18.8628 20.9565 18.8628C21.3065 18.8628 21.7825 18.7438 22.0555 18.2888V18.7998H22.8745ZM22.0555 17.2878C22.0555 17.8478 21.6915 18.1978 21.1245 18.1978C20.7745 18.1978 20.5295 17.9948 20.5295 17.6868C20.5295 17.3368 20.9355 17.1688 21.2505 17.1688H22.0555V17.2878ZM25.6465 18.8628C26.6615 18.8628 27.2425 18.2118 27.4105 17.6378L26.6475 17.3928C26.5355 17.6798 26.3045 18.1068 25.6605 18.1068C25.0235 18.1068 24.5545 17.6098 24.5545 16.9098C24.5545 16.2028 25.0445 15.7408 25.6535 15.7408C26.2765 15.7408 26.5495 16.1468 26.6335 16.4408L27.3895 16.1888C27.2285 15.5588 26.5845 14.9848 25.6605 14.9848C24.5475 14.9848 23.7005 15.8598 23.7005 16.9238C23.7005 18.0228 24.5475 18.8628 25.6465 18.8628Z" fill="#2A2B32"/>
</svg>
