<svg width="41" height="41" viewBox="0 0 41 41" fill="none" xmlns="http://www.w3.org/2000/svg">
<path fill-rule="evenodd" clip-rule="evenodd" d="M32.1025 20.7998C32.1025 27.4268 26.7295 32.7998 20.1025 32.7998C13.4755 32.7998 8.10248 27.4268 8.10248 20.7998C8.10248 14.1728 13.4755 8.7998 20.1025 8.7998C26.7295 8.7998 32.1025 14.1728 32.1025 20.7998ZM14.1025 22.7998C14.6329 22.7998 15.1416 22.5891 15.5167 22.214C15.8918 21.8389 16.1025 21.3302 16.1025 20.7998C16.1025 20.2694 15.8918 19.7607 15.5167 19.3856C15.1416 19.0105 14.6329 18.7998 14.1025 18.7998C13.572 18.7998 13.0633 19.0105 12.6883 19.3856C12.3132 19.7607 12.1025 20.2694 12.1025 20.7998C12.1025 21.3302 12.3132 21.8389 12.6883 22.214C13.0633 22.5891 13.572 22.7998 14.1025 22.7998ZM22.1025 20.7998C22.1025 21.3302 21.8918 21.8389 21.5167 22.214C21.1416 22.5891 20.6329 22.7998 20.1025 22.7998C19.572 22.7998 19.0633 22.5891 18.6883 22.214C18.3132 21.8389 18.1025 21.3302 18.1025 20.7998C18.1025 20.2694 18.3132 19.7607 18.6883 19.3856C19.0633 19.0105 19.572 18.7998 20.1025 18.7998C20.6329 18.7998 21.1416 19.0105 21.5167 19.3856C21.8918 19.7607 22.1025 20.2694 22.1025 20.7998ZM26.1025 22.7998C26.6329 22.7998 27.1416 22.5891 27.5167 22.214C27.8918 21.8389 28.1025 21.3302 28.1025 20.7998C28.1025 20.2694 27.8918 19.7607 27.5167 19.3856C27.1416 19.0105 26.6329 18.7998 26.1025 18.7998C25.572 18.7998 25.0633 19.0105 24.6883 19.3856C24.3132 19.7607 24.1025 20.2694 24.1025 20.7998C24.1025 21.3302 24.3132 21.8389 24.6883 22.214C25.0633 22.5891 25.572 22.7998 26.1025 22.7998Z" fill="#2A2B32"/>
</svg>
