<svg width="41" height="41" viewBox="0 0 41 41" fill="none" xmlns="http://www.w3.org/2000/svg">
<path d="M20.1025 24.7998C19.0416 24.7998 18.0242 24.3784 17.2741 23.6282C16.5239 22.8781 16.1025 21.8607 16.1025 20.7998C16.1025 19.7389 16.5239 18.7215 17.2741 17.9714C18.0242 17.2212 19.0416 16.7998 20.1025 16.7998C21.1633 16.7998 22.1808 17.2212 22.9309 17.9714C23.6811 18.7215 24.1025 19.7389 24.1025 20.7998C24.1025 21.8607 23.6811 22.8781 22.9309 23.6282C22.1808 24.3784 21.1633 24.7998 20.1025 24.7998ZM14.4925 18.7998L11.1025 12.8768C13.2565 10.3838 16.4185 8.7998 19.9465 8.7998C24.2835 8.7998 28.0675 11.1878 30.1025 14.7218H20.0695C17.4695 14.7218 15.2635 16.4348 14.4925 18.7998ZM21.1025 26.8318L17.7665 32.7998C12.2845 31.8068 8.10248 26.8678 8.10248 20.9258C8.10248 18.6888 8.70648 16.5978 9.73748 14.7998L14.8475 23.9428L14.8545 23.9398C15.8655 25.7418 17.7485 26.9598 19.9065 26.9598C20.3165 26.9598 20.7165 26.9148 21.1025 26.8318ZM24.6065 16.7998H31.3945C31.8445 18.0538 32.1025 19.3968 32.1025 20.8018C32.1025 27.3778 26.7305 32.7298 20.1025 32.7998L25.3505 23.8028L25.3445 23.7998C25.8804 22.8915 26.1635 21.8564 26.1645 20.8018C26.1624 19.32 25.6073 17.8926 24.6065 16.7998Z" fill="#2A2B32"/>
</svg>
