<svg width="41" height="41" viewBox="0 0 41 41" fill="none" xmlns="http://www.w3.org/2000/svg">
<path d="M29.0335 27.8676C28.8301 27.7429 28.6393 27.5989 28.4635 27.4376C28.3735 27.3476 28.4635 26.9376 28.4635 26.7176C28.5675 26.3176 28.4945 25.8916 28.2635 25.5476C28.2147 25.5019 28.1611 25.4616 28.1035 25.4276V24.7876C28.065 22.3212 27.1014 19.9591 25.4035 18.1696C24.734 17.5345 24.2801 16.7058 24.1055 15.7996V15.5696C24.1055 14.1896 24.1055 11.3096 22.6055 9.80063C22.2792 9.47203 21.889 9.21377 21.459 9.04178C21.029 8.86979 20.5684 8.78772 20.1055 8.80063C18.0065 8.80063 16.6065 9.80063 16.6065 14.8006C16.5166 16.1058 16.108 17.3691 15.4165 18.4796C15.1465 18.9996 14.8765 19.5396 14.6365 20.1096C13.9624 21.6488 13.4496 23.2537 13.1065 24.8986C12.8919 25.0239 12.7097 25.1977 12.5744 25.4061C12.4391 25.6145 12.3545 25.8517 12.3275 26.0986L12.2475 26.4286C12.0726 26.4933 11.8917 26.5402 11.7075 26.5686C11.1075 26.6886 10.1075 26.8886 10.1075 27.7986C10.1105 28.0436 10.1375 28.2886 10.1875 28.5286C10.305 29.0759 10.2775 29.6443 10.1075 30.1776C10.1017 30.2208 10.1017 30.2645 10.1075 30.3076C10.1075 31.4976 11.9775 31.6576 13.1075 31.7976H13.5475C13.8205 31.8786 14.0845 31.9856 14.3375 32.1176C15.0395 32.4976 15.8122 32.729 16.6075 32.7976C16.7701 32.7959 16.9305 32.7604 17.0786 32.6933C17.2266 32.6261 17.3591 32.5288 17.4675 32.4076H17.5175C18.3233 32.0112 19.2085 31.8026 20.1065 31.7976H23.1665C23.2175 32.0006 23.3165 32.1896 23.4565 32.3476C23.7555 32.6576 24.1755 32.8216 24.6065 32.7976C25.0963 32.7836 25.5763 32.6573 26.0096 32.4285C26.4429 32.1996 26.8178 31.8743 27.1055 31.4776L27.4255 31.1476C27.7805 30.8776 28.1855 30.6776 28.6155 30.5576C29.3355 30.2976 30.0755 30.0276 30.0755 29.2976C30.0755 28.5676 29.5055 28.1876 29.0355 27.8676H29.0335ZM21.1055 11.8006C21.6855 11.8006 22.1055 12.4206 22.1055 13.2806C22.1055 14.1406 21.7755 14.6206 21.2955 14.7306C21.3937 14.6479 21.4711 14.5433 21.5215 14.4252C21.5718 14.3071 21.5938 14.1788 21.5855 14.0506C21.5855 13.6406 21.3655 13.3006 21.1055 13.3006C20.8455 13.3006 20.6255 13.6306 20.6255 14.0506C20.6172 14.1788 20.6391 14.3071 20.6895 14.4252C20.7399 14.5433 20.8173 14.6479 20.9155 14.7306C20.4355 14.6106 20.1055 14.0306 20.1055 13.2806C20.1055 12.5306 20.5255 11.8006 21.1055 11.8006ZM21.5455 15.6806C20.8305 16.2387 19.9949 16.6219 19.1055 16.7996C18.5314 16.5936 18.0165 16.2503 17.6055 15.7996C18.1227 15.2267 18.8368 14.8697 19.6055 14.7996C20.3211 14.9078 20.9927 15.2134 21.5455 15.6806ZM18.1055 11.7996C18.6855 11.7996 19.1055 12.4196 19.1055 13.2796C19.1055 14.1396 18.7755 14.6096 18.2955 14.7296C18.3937 14.6469 18.4711 14.5423 18.5215 14.4242C18.5718 14.3061 18.5938 14.1778 18.5855 14.0496C18.5855 13.6396 18.3655 13.2996 18.1055 13.2996C17.8455 13.2996 17.6255 13.6296 17.6255 14.0496C17.6172 14.1778 17.6391 14.3061 17.6895 14.4242C17.7399 14.5423 17.8173 14.6469 17.9155 14.7296C17.4355 14.6096 17.1055 14.0396 17.1055 13.2796C17.1055 12.5196 17.5255 11.7996 18.1055 11.7996ZM16.8755 31.5066C16.8155 31.6966 16.7255 31.7966 16.6055 31.7966C15.9494 31.7187 15.3145 31.515 14.7355 31.1966C14.4196 31.0232 14.0838 30.8889 13.7355 30.7966H13.1755C11.6865 30.6766 11.2265 30.4966 11.1265 30.3566C11.3064 29.7041 11.3236 29.0174 11.1765 28.3566C11.1375 28.1723 11.1141 27.9849 11.1065 27.7966C11.3635 27.6566 11.6455 27.5682 11.9365 27.5366C12.2991 27.5002 12.6449 27.3653 12.9365 27.1466C13.1329 26.9126 13.261 26.6288 13.3065 26.3266C13.4365 25.7966 13.4865 25.7966 13.5565 25.7966C13.8565 26.1466 14.0945 26.5466 14.2565 26.9766C14.5781 27.8384 15.107 28.6078 15.7965 29.2166C16.1836 29.4479 16.4931 29.7892 16.6854 30.1971C16.8778 30.6049 16.9443 31.0608 16.8765 31.5066H16.8755ZM23.2455 28.5066C21.7755 29.9866 18.8355 29.8866 17.5355 29.6866C17.2613 29.1706 16.8668 28.7281 16.3855 28.3966C15.8492 27.878 15.4357 27.2459 15.1755 26.5466C14.9702 25.9519 14.6276 25.414 14.1755 24.9766C14.5036 23.4402 14.9826 21.94 15.6055 20.4976C15.8155 19.9676 16.0855 19.4976 16.3455 18.9476C16.7105 18.2756 17.0255 17.5776 17.2855 16.8586C17.7964 17.3302 18.4252 17.6549 19.1055 17.7986C20.1055 17.5456 21.0585 17.1416 21.9355 16.5986C23.3956 19.3533 24.1416 22.4301 24.1055 25.5476C23.5701 26.4408 23.2739 27.4567 23.2455 28.4976V28.5066ZM28.3035 29.6266C27.7339 29.7906 27.2056 30.0735 26.7535 30.4566L26.4135 30.8066C26.2126 31.1046 25.9439 31.3506 25.6294 31.5245C25.3149 31.6983 24.9636 31.795 24.6045 31.8066C24.5316 31.815 24.4578 31.8087 24.3874 31.7881C24.3169 31.7675 24.2514 31.733 24.1945 31.6866C24.0445 31.5166 24.0845 31.1266 24.0945 30.9666L24.1045 30.7966C24.1045 30.4966 24.3845 27.6666 24.4745 27.2166C24.5145 27.2766 24.5575 27.3336 24.6045 27.3866C24.8645 27.6616 25.2265 27.8146 25.6045 27.8066H25.9545C26.2171 27.8323 26.4822 27.8057 26.7344 27.7285C26.9867 27.6513 27.2213 27.5249 27.4245 27.3566C27.4345 27.6546 27.5515 27.9386 27.7545 28.1566C27.9775 28.3676 28.2225 28.5556 28.4845 28.7166C28.8645 28.9666 29.1045 29.1366 29.1245 29.2466C28.8721 29.412 28.5955 29.5369 28.3045 29.6166L28.3035 29.6266Z" fill="#2A2B32"/>
</svg>
