<svg width="133" height="61" viewBox="0 0 133 61" fill="none" xmlns="http://www.w3.org/2000/svg">
<g clip-path="url(#clip0_2_84)">
<g clip-path="url(#clip1_2_84)">
<path d="M17.6025 40.3789V20.1899H37.1755V40.3789H17.6025ZM19.0435 23.3589C19.9175 27.4629 20.7005 31.5889 21.5415 35.7009C21.6955 36.1929 21.6005 36.8429 22.0735 37.1729C22.9265 37.3109 23.8025 37.2769 24.6635 37.2169C25.1315 37.2319 25.2435 36.6759 25.3295 36.3189C25.9175 33.3909 26.5565 30.4739 27.1415 27.5469C27.1875 27.2759 27.2715 27.0119 27.3975 26.7689C28.1275 29.9099 28.7295 33.0789 29.4075 36.2299C29.5005 36.5649 29.5195 36.9789 29.8465 37.1829C30.7818 37.3021 31.7287 37.2998 32.6635 37.1759C32.9975 36.9759 33.0145 36.5649 33.1005 36.2259C33.9605 31.9389 34.7635 27.6359 35.6735 23.3589C34.8515 23.3639 34.0315 23.3609 33.2125 23.3609C32.5585 27.0909 32.0345 30.8459 31.3125 34.5629C30.5005 31.4089 29.9565 28.1789 29.2485 24.9959C29.0885 24.4519 29.1615 23.6589 28.5705 23.3829C27.8479 23.3374 27.1231 23.3374 26.4005 23.3829C25.9905 23.4179 25.8975 23.9079 25.8175 24.2329C25.1635 27.3889 24.4775 30.5379 23.8395 33.6939C23.7703 33.9846 23.6787 34.2695 23.5655 34.5459C22.9061 30.8252 22.2917 27.0966 21.7225 23.3609C20.8295 23.3589 19.9365 23.3639 19.0435 23.3589ZM42.1415 23.2259C45.2955 23.2179 48.4465 23.2179 51.5975 23.2259C51.6095 24.0499 51.6095 24.8779 51.6005 25.7049C50.4855 25.7119 49.3705 25.7069 48.2565 25.7069C48.2615 28.7569 48.2615 31.8109 48.2565 34.8609C49.3705 34.8609 50.4855 34.8559 51.6025 34.8659C51.6075 35.6909 51.6095 36.5179 51.5975 37.3429C48.4465 37.3499 45.2955 37.3499 42.1435 37.3429C42.1318 36.5163 42.1312 35.6896 42.1415 34.8629C43.2565 34.8559 44.3715 34.8609 45.4855 34.8609C45.4805 31.8109 45.4805 28.7579 45.4855 25.7069C44.3705 25.7069 43.2555 25.7119 42.1415 25.7049C42.1315 24.8779 42.1315 24.0539 42.1415 23.2259ZM56.5655 40.3789V20.1899H76.1395V40.3789H56.5655ZM60.9875 23.3609V37.2079H63.7005V31.7899C65.1705 31.7949 66.6415 31.7829 68.1125 31.7929C68.6485 31.7409 69.2875 32.1269 69.2755 32.7229C69.3435 34.2199 69.4705 35.7129 69.5635 37.2069C70.4245 37.2069 71.2835 37.2069 72.1435 37.2089C71.9005 35.5149 72.2005 33.7649 71.7265 32.1049C71.4825 31.2359 70.5315 31.0419 69.7905 30.8249C70.3415 30.5299 71.0485 30.5019 71.4485 29.9609C72.0285 29.2169 72.0705 28.2249 72.0735 27.3189C72.0635 26.2599 72.0875 25.0959 71.4225 24.2069C70.8905 23.4679 69.8955 23.3599 69.0615 23.3599C66.3715 23.3579 63.6785 23.3609 60.9875 23.3609ZM63.7005 25.6359C65.4415 25.6629 67.1855 25.5819 68.9225 25.6729C69.5925 26.1529 69.4585 27.1179 69.4855 27.8439C69.4515 28.5039 69.4395 29.5609 68.5685 29.6119C66.9485 29.6959 65.3225 29.6249 63.7005 29.6469V25.6359ZM79.6365 23.2279C83.5005 23.2159 87.3635 23.2159 91.2295 23.2279C91.2345 24.7599 91.2295 26.2909 91.2315 27.8219H88.7215C88.7195 27.1159 88.7195 26.4119 88.7245 25.7069C87.2125 25.7099 85.7025 25.7099 84.1905 25.7069C84.1855 26.7669 84.1875 27.8249 84.1875 28.8829H87.8465V31.2399H84.1875C84.1925 32.4479 84.1755 33.6599 84.2005 34.8689C85.7505 34.8509 87.3025 34.8639 88.8535 34.8609C88.8515 34.0559 88.8515 33.2509 88.8535 32.4459C89.7045 32.4359 90.5565 32.4359 91.4075 32.4439C91.4075 34.0759 91.4195 35.7079 91.4005 37.3409C87.4785 37.3529 83.5585 37.3529 79.6365 37.3409C79.6245 36.5159 79.6265 35.6909 79.6345 34.8659C80.2555 34.8591 80.8765 34.8585 81.4975 34.8639C81.5095 31.8109 81.5095 28.7579 81.4975 25.7049C80.8755 25.7112 80.2534 25.7089 79.6315 25.6979C79.6256 24.8746 79.6273 24.0512 79.6365 23.2279ZM95.5905 40.3779V20.1899H115.407V40.3789L95.5905 40.3779ZM100.012 23.3609V37.2079C102.292 37.2029 104.57 37.2179 106.851 37.1999C108.256 37.1729 109.892 36.9099 110.739 35.6399C111.726 34.0439 111.578 32.0909 111.751 30.2919C111.575 28.4899 111.731 26.5299 110.739 24.9289C109.951 23.7399 108.443 23.4279 107.119 23.3789C104.751 23.3389 102.38 23.3709 100.012 23.3609ZM102.724 25.6359C104.194 25.6429 105.665 25.6259 107.136 25.6409C107.792 25.6339 108.541 25.9559 108.748 26.6359C109.209 27.9659 109.014 29.4079 109.065 30.7919C109.026 31.8969 109.141 33.0639 108.675 34.0999C108.363 34.7699 107.555 34.9469 106.89 34.9349C105.5 34.9349 104.112 34.9299 102.724 34.9329V25.6359Z" fill="#8A8C98"/>
</g>
</g>
<defs>
<clipPath id="clip0_2_84">
<rect width="132" height="60" fill="white" transform="translate(0.602478 0.189941)"/>
</clipPath>
<clipPath id="clip1_2_84">
<rect width="132" height="60" fill="white" transform="translate(0.602478 0.189941)"/>
</clipPath>
</defs>
</svg>
