<svg width="51" height="50" viewBox="0 0 51 50" fill="none" xmlns="http://www.w3.org/2000/svg">
<g clip-path="url(#clip0_2_45)">
<g clip-path="url(#clip1_2_45)">
<g clip-path="url(#clip2_2_45)">
<path d="M24.7928 49.3504C38.4178 49.3504 49.4631 38.3051 49.4631 24.6801C49.4631 11.055 38.4178 0.00976562 24.7928 0.00976562C11.1678 0.00976562 0.122498 11.055 0.122498 24.6801C0.122498 38.3051 11.1678 49.3504 24.7928 49.3504Z" fill="#FFF500"/>
<path d="M29.6658 17.2848L31.4172 14.4848C32.0988 13.3906 33.2995 12.7258 34.5903 12.7258H34.7213C36.7164 12.7258 38.3323 14.3426 38.3323 16.3368C38.3323 17.1498 38.0615 17.8987 37.6101 18.5035H39.0546C40.2507 18.5035 41.2212 19.474 41.2212 20.6701V23.559C41.2212 24.5024 40.6163 25.3058 39.7768 25.6038V32.9477C39.7768 34.5411 38.4813 35.8366 36.8879 35.8366H22.4437C20.848 35.8366 19.5549 34.5411 19.5549 32.9477V25.6038C18.7135 25.3058 18.1104 24.5024 18.1104 23.559V20.6701C18.1104 19.474 19.0804 18.5035 20.277 18.5035H21.721C21.2678 17.8987 20.9993 17.1498 20.9993 16.3368C20.9993 14.3426 22.6161 12.7258 24.6103 12.7258H24.7412C26.0322 12.7258 27.2328 13.3906 27.9145 14.4848L29.6658 17.2848ZM34.5903 14.1702C33.7959 14.1702 33.0601 14.5783 32.6404 15.2503L30.6092 18.5035H34.7213C35.9174 18.5035 36.8879 17.533 36.8879 16.3368C36.8879 15.1402 35.9174 14.1702 34.7213 14.1702H34.5903ZM28.7224 18.5035L26.6912 15.2503C26.2714 14.5783 25.5356 14.1702 24.7412 14.1702H24.6103C23.4142 14.1702 22.4437 15.1402 22.4437 16.3368C22.4437 17.533 23.4142 18.5035 24.6103 18.5035H28.7224ZM20.277 19.9479C19.878 19.9479 19.5549 20.2729 19.5549 20.6701V23.559C19.5549 23.9562 19.878 24.2812 20.277 24.2812H28.9436V19.9479H20.277ZM30.388 24.2812H39.0546C39.4518 24.2812 39.7768 23.9562 39.7768 23.559V20.6701C39.7768 20.2729 39.4518 19.9479 39.0546 19.9479H30.388V24.2812ZM28.9436 25.7256H20.9993V32.9477C20.9993 33.7467 21.6461 34.3922 22.4437 34.3922H28.9436V25.7256ZM30.388 34.3922H36.8879C37.6869 34.3922 38.3323 33.7467 38.3323 32.9477V25.7256H30.388V34.3922Z" fill="black"/>
<path d="M10.6676 29.5701C10.2521 29.5701 9.91535 29.2333 9.91535 28.8178V22.7606C9.91535 22.3451 10.2521 22.0083 10.6676 22.0083C11.0831 22.0083 11.4198 22.3451 11.4198 22.7606V28.8178C11.4198 29.2333 11.0831 29.5701 10.6676 29.5701ZM7.64176 26.5387C7.2263 26.5387 6.8895 26.2018 6.8895 25.7864C6.8895 25.3709 7.2263 25.0341 7.64177 25.0341H13.6991C14.1146 25.0341 14.4513 25.3709 14.4513 25.7864C14.4513 26.2018 14.1146 26.5387 13.6991 26.5387H7.64176Z" fill="black"/>
</g>
</g>
</g>
<defs>
<clipPath id="clip0_2_45">
<rect width="50" height="50" fill="white" transform="translate(0.122498 0.00976562)"/>
</clipPath>
<clipPath id="clip1_2_45">
<rect width="50" height="50" fill="white" transform="translate(0.122498 0.00976562)"/>
</clipPath>
<clipPath id="clip2_2_45">
<rect width="50" height="50" fill="white" transform="translate(0.122498 0.00976562)"/>
</clipPath>
</defs>
</svg>
