<svg width="51" height="50" viewBox="0 0 51 50" fill="none" xmlns="http://www.w3.org/2000/svg">
<g clip-path="url(#clip0_2_38)">
<g clip-path="url(#clip1_2_38)">
<g clip-path="url(#clip2_2_38)">
<path d="M24.8398 49.4443C38.4907 49.4443 49.557 38.378 49.557 24.727C49.557 11.0761 38.4907 0.00976562 24.8398 0.00976562C11.1888 0.00976562 0.122498 11.0761 0.122498 24.727C0.122498 38.378 11.1888 49.4443 24.8398 49.4443Z" fill="#3E5FFF"/>
<path fill-rule="evenodd" clip-rule="evenodd" d="M11.6968 34.3836C9.67686 31.5981 8.59221 28.245 8.59851 24.8041C8.59851 15.792 15.8893 8.4856 24.8808 8.4856C33.8724 8.4856 41.1632 15.792 41.1632 24.8041C41.1679 28.245 40.0832 31.5981 38.0633 34.3836L30.2412 21.6554L29.485 22.9335L30.2506 26.486L24.8777 17.2775L21.553 22.9036L22.3264 26.4923L19.5094 21.6696L11.6952 34.3836H11.6968Z" fill="white"/>
</g>
</g>
</g>
<defs>
<clipPath id="clip0_2_38">
<rect width="50" height="50" fill="white" transform="translate(0.122498 0.00976562)"/>
</clipPath>
<clipPath id="clip1_2_38">
<rect width="50" height="50" fill="white" transform="translate(0.122498 0.00976562)"/>
</clipPath>
<clipPath id="clip2_2_38">
<rect width="50" height="50" fill="white" transform="translate(0.122498 0.00976562)"/>
</clipPath>
</defs>
</svg>
