<svg width="25" height="25" viewBox="0 0 25 25" fill="none" xmlns="http://www.w3.org/2000/svg">
<path fill-rule="evenodd" clip-rule="evenodd" d="M12.1075 0.540039C18.7325 0.543039 24.1025 5.91404 24.1025 12.54C24.1025 19.065 18.8935 24.374 12.4075 24.536L12.0765 24.54C5.46154 24.526 0.102539 19.159 0.102539 12.54C0.102539 6.01504 5.31154 0.706039 11.7975 0.544039L12.1075 0.540039ZM11.1025 13.54H7.13354C7.35754 17.069 8.76954 19.992 11.1035 21.758L11.1025 13.54ZM17.0715 13.541L13.1025 13.54V21.759C15.3555 20.053 16.7495 17.269 17.0435 13.904L17.0725 13.54L17.0715 13.541ZM2.15154 13.541C2.33125 15.3248 2.9868 17.0275 4.04966 18.4712C5.11253 19.9149 6.54368 21.0466 8.19354 21.748C6.37854 19.628 5.31154 16.774 5.13054 13.54H2.15154V13.541ZM22.0535 13.541H19.0745C18.8935 16.774 17.8265 19.628 16.0135 21.749C17.6131 21.0679 19.0078 19.982 20.0604 18.5982C21.113 17.2144 21.7871 15.5804 22.0165 13.857L22.0535 13.541ZM22.0535 11.541C21.8738 9.75731 21.2183 8.05459 20.1554 6.61088C19.0925 5.16716 17.6614 4.03545 16.0115 3.33404C17.8265 5.45404 18.8935 8.30804 19.0745 11.542L22.0535 11.54V11.541ZM8.19154 3.33204L8.14954 3.35204C6.51054 4.05811 5.09015 5.18959 4.03554 6.62926C2.98093 8.06893 2.33046 9.76442 2.15154 11.54H5.13054C5.31154 8.30704 6.37854 5.45304 8.19154 3.33204ZM7.13354 11.54H11.1025V3.32204C8.85054 5.02704 7.45554 7.81004 7.16254 11.177L7.13354 11.54ZM13.1035 3.32204L13.1025 11.54H17.0715C16.8475 8.01204 15.4355 5.08904 13.1025 3.32204H13.1035Z" fill="#383C43"/>
</svg>
