<svg width="79" height="24" viewBox="0 0 79 24" fill="none" xmlns="http://www.w3.org/2000/svg">
<path d="M71.4985 8.86294L69.4135 12.4469H64.6305L68.9205 6.05894L64.8515 0.189941H69.7185L71.6185 3.40994L73.4305 0.189941H78.1785L74.1765 6.00694L78.6025 12.4469H73.6685L71.4985 8.86294ZM51.3385 17.2689H48.4905V5.98994H50.8455C55.7455 5.98994 56.1775 10.0549 56.1775 11.5019C56.1775 13.6569 55.5605 17.2699 51.3385 17.2699V17.2689ZM53.0335 0.189941H41.8285V23.1179H51.7085C59.3815 23.1179 62.9555 18.6409 62.9555 11.5969C62.9555 5.80794 60.3675 0.189941 53.0335 0.189941ZM21.2065 23.1899H40.2505V17.0739H28.4795V14.7489L40.2495 14.7589V8.66894H28.4795V6.33194L40.2495 6.32394V0.190941H21.2075L21.2065 23.1899ZM0.602478 6.31794H6.44548V23.1199H13.7705V6.31994H19.6285V0.189941H0.602478V6.31794Z" fill="#8A8C98"/>
</svg>
